<svg width="70" height="70" viewBox="0 0 70 70" fill="none" xmlns="http://www.w3.org/2000/svg">
<path fill-rule="evenodd" clip-rule="evenodd" d="M19.201 11.3548C23.8775 8.23009 29.3756 6.56226 35 6.56226C38.7345 6.56226 42.4324 7.29781 45.8826 8.72693C49.3328 10.156 52.4677 12.2507 55.1084 14.8914C57.749 17.5321 59.8437 20.667 61.2728 24.1172C62.702 27.5674 63.4375 31.2653 63.4375 34.9998C63.4375 40.6242 61.7697 46.1223 58.6449 50.7988C55.5202 55.4753 51.0788 59.1202 45.8826 61.2726C40.6863 63.425 34.9685 63.9881 29.4521 62.8908C23.9358 61.7936 18.8687 59.0852 14.8917 55.1081C10.9146 51.1311 8.2062 46.064 7.10893 40.5476C6.01166 35.0313 6.57482 29.3135 8.72719 24.1172C10.8796 18.9209 14.5245 14.4796 19.201 11.3548ZM21.6316 55.007C25.5887 57.651 30.2409 59.0623 35 59.0623C41.3818 59.0623 47.5022 56.5271 52.0148 52.0145C56.5274 47.5019 59.0625 41.3815 59.0625 34.9998C59.0625 30.2406 57.6513 25.5884 55.0072 21.6313C52.3632 17.6743 48.6052 14.5901 44.2083 12.7689C39.8115 10.9477 34.9733 10.4712 30.3057 11.3996C25.638 12.3281 21.3505 14.6198 17.9853 17.985C14.6201 21.3502 12.3283 25.6377 11.3999 30.3054C10.4714 34.9731 10.9479 39.8112 12.7692 44.2081C14.5904 48.6049 17.6745 52.363 21.6316 55.007ZM26.25 32.8123C25.5289 32.8123 24.824 32.5984 24.2245 32.1978C23.6249 31.7972 23.1576 31.2278 22.8817 30.5616C22.6058 29.8954 22.5336 29.1624 22.6742 28.4552C22.8149 27.7479 23.1621 27.0983 23.672 26.5884C24.1819 26.0786 24.8315 25.7313 25.5387 25.5906C26.246 25.45 26.979 25.5222 27.6452 25.7981C28.3114 26.0741 28.8808 26.5414 29.2814 27.1409C29.682 27.7405 29.8958 28.4453 29.8958 29.1664C29.8958 30.1334 29.5117 31.0607 28.828 31.7444C28.1443 32.4281 27.2169 32.8123 26.25 32.8123ZM47.3958 29.1664C47.3958 29.8875 47.182 30.5924 46.7814 31.1919C46.3808 31.7915 45.8114 32.2588 45.1452 32.5347C44.479 32.8107 43.746 32.8829 43.0387 32.7422C42.3315 32.6015 41.6819 32.2543 41.172 31.7444C40.6621 31.2345 40.3149 30.5849 40.1742 29.8777C40.0336 29.1705 40.1058 28.4374 40.3817 27.7712C40.6576 27.105 41.1249 26.5356 41.7245 26.135C42.3241 25.7344 43.0289 25.5206 43.75 25.5206C44.7169 25.5206 45.6443 25.9047 46.328 26.5884C47.0117 27.2722 47.3958 28.1995 47.3958 29.1664ZM45.9375 43.7498C45.9375 44.3299 45.707 44.8863 45.2968 45.2966C44.8866 45.7068 44.3302 45.9373 43.75 45.9373H26.25C25.6699 45.9373 25.1135 45.7068 24.7032 45.2966C24.293 44.8863 24.0625 44.3299 24.0625 43.7498C24.0625 43.1696 24.293 42.6132 24.7032 42.203C25.1135 41.7927 25.6699 41.5623 26.25 41.5623H43.75C44.3302 41.5623 44.8866 41.7927 45.2968 42.203C45.707 42.6132 45.9375 43.1696 45.9375 43.7498Z" fill="#121212"/>
</svg>
