<svg width="19" height="18" viewBox="0 0 19 18" fill="none" xmlns="http://www.w3.org/2000/svg">
<path fill-rule="evenodd" clip-rule="evenodd" d="M9.35025 16.9001C13.8832 16.9001 17.5579 13.3631 17.5579 9.00009C17.5579 4.63704 13.8832 1.1001 9.35025 1.1001C4.81728 1.1001 1.14258 4.63704 1.14258 9.00009C1.14258 13.3631 4.81728 16.9001 9.35025 16.9001ZM10.0014 5.34306C10.0014 4.99693 9.70987 4.71634 9.35027 4.71634C8.99066 4.71634 8.69914 4.99693 8.69914 5.34306V10.3568C8.69914 10.7029 8.99066 10.9835 9.35027 10.9835C9.70987 10.9835 10.0014 10.7029 10.0014 10.3568V5.34306ZM10.2184 12.4458C10.2184 12.9073 9.82974 13.2815 9.35027 13.2815C8.87079 13.2815 8.4821 12.9073 8.4821 12.4458C8.4821 11.9843 8.87079 11.6102 9.35027 11.6102C9.82974 11.6102 10.2184 11.9843 10.2184 12.4458Z" fill="#F14C29"/>
</svg>
