<svg width="25" height="24" viewBox="0 0 25 24" fill="none" xmlns="http://www.w3.org/2000/svg">
<path d="M14.1708 7.53033C14.4637 7.82322 14.9386 7.82322 15.2315 7.53033L15.9512 6.81066L15.9512 17C15.9512 17.4142 16.287 17.75 16.7012 17.75C17.1154 17.75 17.4512 17.4142 17.4512 17L17.4512 6.81066L18.1708 7.53033C18.4637 7.82322 18.9386 7.82322 19.2315 7.53033C19.5244 7.23744 19.5244 6.76256 19.2315 6.46967L17.2315 4.46967C16.9386 4.17678 16.4637 4.17678 16.1708 4.46967L14.1708 6.46967C13.8779 6.76256 13.8779 7.23744 14.1708 7.53033Z" fill="black"/>
<path d="M9.45117 17.1893L10.1708 16.4697C10.4637 16.1768 10.9386 16.1768 11.2315 16.4697C11.5244 16.7626 11.5244 17.2374 11.2315 17.5303L9.2315 19.5303C8.93861 19.8232 8.46374 19.8232 8.17084 19.5303L6.17084 17.5303C5.87795 17.2374 5.87795 16.7626 6.17084 16.4697C6.46373 16.1768 6.93861 16.1768 7.2315 16.4697L7.95117 17.1893L7.95117 7C7.95117 6.58579 8.28696 6.25 8.70117 6.25C9.11538 6.25 9.45117 6.58579 9.45117 7L9.45117 17.1893Z" fill="black"/>
</svg>
