<svg width="21" height="20" viewBox="0 0 21 20" fill="none" xmlns="http://www.w3.org/2000/svg">
<path d="M17 9V14.2C17 15.9673 15.5673 17.4 13.8 17.4H7.2C5.43269 17.4 4 15.9673 4 14.2V9" stroke="#121212" stroke-width="1.44" stroke-linecap="round"/>
<path d="M8.5 15.3999C8.5 14.2953 9.39543 13.3999 10.5 13.3999V13.3999C11.6046 13.3999 12.5 14.2953 12.5 15.3999V17.3999H8.5V15.3999Z" stroke="#121212" stroke-width="1.44"/>
<path d="M3.5383 4.01842C3.63065 3.21032 4.31459 2.6001 5.12795 2.6001H9.00049L8.31514 7.39757C8.13459 8.66137 7.05223 9.6001 5.77559 9.6001V9.6001C4.24341 9.6001 3.05289 8.26576 3.22686 6.74349L3.5383 4.01842Z" stroke="#121212" stroke-width="1.44"/>
<path d="M9 2.6001H12L12.6464 7.12523C12.833 8.43145 11.8195 9.6001 10.5 9.6001V9.6001C9.18052 9.6001 8.16695 8.43144 8.35355 7.12522L9 2.6001Z" stroke="#121212" stroke-width="1.44"/>
<path d="M12 2.6001H15.8724C16.6858 2.6001 17.3697 3.21032 17.4621 4.01842L17.7735 6.74354C17.9475 8.26578 16.757 9.6001 15.2249 9.6001V9.6001C13.9482 9.6001 12.8659 8.66139 12.6854 7.39761L12 2.6001Z" stroke="#121212" stroke-width="1.44"/>
</svg>
