<svg width="19" height="18" viewBox="0 0 19 18" fill="none" xmlns="http://www.w3.org/2000/svg">
<path fill-rule="evenodd" clip-rule="evenodd" d="M9.35049 16.8996C13.8835 16.8996 17.5582 13.3626 17.5582 8.9996C17.5582 4.63655 13.8835 1.09961 9.35049 1.09961C4.81752 1.09961 1.14282 4.63655 1.14282 8.9996C1.14282 13.3626 4.81752 16.8996 9.35049 16.8996ZM10.0016 5.34257C10.0016 4.99644 9.71012 4.71585 9.35051 4.71585C8.9909 4.71585 8.69938 4.99644 8.69938 5.34257V10.3563C8.69938 10.7024 8.9909 10.983 9.35051 10.983C9.71012 10.983 10.0016 10.7024 10.0016 10.3563V5.34257ZM10.2187 12.4454C10.2187 12.9069 9.82998 13.281 9.35051 13.281C8.87103 13.281 8.48234 12.9069 8.48234 12.4454C8.48234 11.9838 8.87103 11.6097 9.35051 11.6097C9.82998 11.6097 10.2187 11.9838 10.2187 12.4454Z" fill="#F14C29"/>
</svg>
