<svg width="12" height="14" viewBox="0 0 12 14" fill="none" xmlns="http://www.w3.org/2000/svg">
<path d="M3.83724 5.66667C3.83724 4.47005 4.80729 3.5 6.00391 3.5C7.20052 3.5 8.17057 4.47005 8.17057 5.66667C8.17057 6.86328 7.20052 7.83333 6.00391 7.83333C4.80729 7.83333 3.83724 6.86328 3.83724 5.66667Z" fill="#777777"/>
<path fill-rule="evenodd" clip-rule="evenodd" d="M0.519601 4.91826C0.748694 2.13896 3.07122 0 5.85994 0H6.1479C8.93662 0 11.2592 2.13896 11.4882 4.91826C11.6116 6.41466 11.1494 7.90052 10.1989 9.06288L7.00355 12.9707C6.4869 13.6026 5.52095 13.6026 5.0043 12.9707L1.80892 9.06288C0.858484 7.90052 0.396256 6.41466 0.519601 4.91826ZM6.00391 2.5C4.255 2.5 2.83724 3.91777 2.83724 5.66667C2.83724 7.41557 4.255 8.83333 6.00391 8.83333C7.75281 8.83333 9.17057 7.41557 9.17057 5.66667C9.17057 3.91777 7.75281 2.5 6.00391 2.5Z" fill="#777777"/>
</svg>
