<svg width="70" height="70" viewBox="0 0 70 70" fill="none" xmlns="http://www.w3.org/2000/svg">
<path fill-rule="evenodd" clip-rule="evenodd" d="M32.1213 30.1369C34.2206 29.9544 36.3319 29.9544 38.4312 30.1369L39.4381 30.2244C40.4014 30.3081 41.1819 31.0412 41.3257 31.9975C41.6281 34.0086 41.6281 36.0537 41.3257 38.0648C41.2992 38.2408 41.2512 38.4091 41.1845 38.5673C41.1402 38.6722 41.0037 38.6881 40.9272 38.6039L37.9795 35.3615C37.8464 35.215 37.6393 35.1609 37.4515 35.2235L35.7642 35.7859L33.3166 33.0323C33.2251 32.9294 33.0952 32.8688 32.9576 32.8647C32.8199 32.8607 32.6867 32.9136 32.5894 33.0109L29.3133 36.287C29.2124 36.3879 29.0405 36.3237 29.0324 36.1813C28.9536 34.7854 29.0184 33.3834 29.2268 31.9975C29.3706 31.0412 30.1511 30.3081 31.1144 30.2244L32.1213 30.1369ZM36.6096 33.0312C36.6096 32.4789 37.0573 32.0312 37.6096 32.0312C38.1619 32.0312 38.6096 32.4789 38.6096 33.0312C38.6096 33.5835 38.1619 34.0312 37.6096 34.0312C37.0573 34.0312 36.6096 33.5835 36.6096 33.0312Z" fill="#D7D7D7"/>
<path d="M29.2505 37.764C29.2136 37.801 29.196 37.853 29.2034 37.9047C29.211 37.9581 29.2188 38.0115 29.2268 38.0648C29.3706 39.0211 30.1511 39.7542 31.1144 39.8379L32.1213 39.9255C34.2206 40.108 36.3319 40.108 38.4312 39.9255L39.4381 39.8379C39.7211 39.8133 39.9884 39.7327 40.2284 39.6067C40.3194 39.559 40.3347 39.4388 40.2656 39.3628L37.5317 36.3555C37.4873 36.3067 37.4183 36.2886 37.3557 36.3095L35.7677 36.8388C35.5779 36.9021 35.3688 36.8462 35.2359 36.6967L33.0389 34.2251C32.9752 34.1535 32.8643 34.1502 32.7965 34.218L29.2505 37.764Z" fill="#D7D7D7"/>
</svg>
