<svg width="16" height="16" viewBox="0 0 16 16" fill="none" xmlns="http://www.w3.org/2000/svg">
<path d="M7.99978 5.88898C6.85864 5.88898 5.88867 6.85895 5.88867 8.00009C5.88867 9.14123 6.85864 10.1112 7.99978 10.1112C9.14092 10.1112 10.1109 9.14123 10.1109 8.00009C10.1109 6.85895 9.14092 5.88898 7.99978 5.88898Z" fill="#121212"/>
<path d="M10.7059 1.66669H5.35135C3.27863 1.66669 1.6665 3.27881 1.6665 5.29396V10.6485C1.6665 12.7212 3.27863 14.3334 5.35135 14.3334H10.7059C12.721 14.3334 14.3332 12.7212 14.3332 10.6485V5.29396C14.3332 3.27881 12.721 1.66669 10.7059 1.66669ZM7.99984 11.3394C6.15741 11.3394 4.71802 9.84244 4.71802 8.0576C4.71802 6.27275 6.15741 4.7182 7.99984 4.7182C9.84226 4.7182 11.2817 6.21517 11.2817 8.00002C11.2817 9.78487 9.84226 11.3394 7.99984 11.3394ZM11.3968 5.40911C10.9938 5.40911 10.6483 5.06366 10.6483 4.66063C10.6483 4.2576 10.9938 3.91214 11.3968 3.91214C11.7998 3.91214 12.1453 4.2576 12.1453 4.66063C12.1453 5.06366 11.7998 5.40911 11.3968 5.40911Z" fill="#121212"/>
</svg>
