<svg width="12" height="12" viewBox="0 0 12 12" fill="none" xmlns="http://www.w3.org/2000/svg">
<path fill-rule="evenodd" clip-rule="evenodd" d="M0.507812 5.66667C0.507812 2.53705 3.04487 0 6.17448 0C9.30409 0 11.8411 2.53705 11.8411 5.66667C11.8411 8.79628 9.30409 11.3333 6.17448 11.3333C3.04487 11.3333 0.507812 8.79628 0.507812 5.66667ZM6.67448 2.33333C6.67448 2.05719 6.45062 1.83333 6.17448 1.83333C5.89834 1.83333 5.67448 2.05719 5.67448 2.33333V5.66667C5.67448 5.83906 5.76329 5.9993 5.90948 6.09067L7.90948 7.34067C8.14365 7.48702 8.45212 7.41583 8.59848 7.18167C8.74483 6.9475 8.67365 6.63902 8.43948 6.49267L6.67448 5.38954V2.33333Z" fill="#777777"/>
</svg>
