<svg width="16" height="16" viewBox="0 0 16 16" fill="none" xmlns="http://www.w3.org/2000/svg">
<path fill-rule="evenodd" clip-rule="evenodd" d="M4.8449 3.10562C6.94426 2.92313 9.0555 2.92313 11.1549 3.10562L12.1617 3.19314C13.1251 3.27689 13.9055 4.00998 14.0493 4.96624C14.3517 6.97739 14.3517 9.02245 14.0493 11.0336C14.0229 11.2095 13.9749 11.3779 13.9081 11.5361C13.8639 11.6409 13.7274 11.6569 13.6508 11.5726L10.7032 8.33025C10.57 8.18375 10.3629 8.12964 10.1751 8.19224L8.48787 8.75465L6.04025 6.00107C5.94876 5.89815 5.81888 5.83751 5.68123 5.83347C5.54358 5.82942 5.41036 5.88233 5.31299 5.9797L2.03691 9.25578C1.93608 9.35661 1.76412 9.29243 1.75608 9.15007C1.67726 7.75415 1.74205 6.35214 1.95045 4.96624C2.09425 4.00998 2.8747 3.27689 3.83808 3.19314L4.8449 3.10562ZM9.33321 5.99992C9.33321 5.44763 9.78093 4.99992 10.3332 4.99992C10.8855 4.99992 11.3332 5.44763 11.3332 5.99992C11.3332 6.5522 10.8855 6.99992 10.3332 6.99992C9.78093 6.99992 9.33321 6.5522 9.33321 5.99992Z" fill="#EEEEEE"/>
<path d="M1.9741 10.7328C1.9372 10.7697 1.91967 10.8218 1.92702 10.8734C1.93462 10.9268 1.94243 10.9802 1.95045 11.0336C2.09425 11.9898 2.8747 12.7229 3.83808 12.8067L4.8449 12.8942C6.94426 13.0767 9.05551 13.0767 11.1549 12.8942L12.1617 12.8067C12.4448 12.7821 12.7121 12.7014 12.9521 12.5755C13.043 12.5277 13.0583 12.4075 12.9892 12.3315L10.2554 9.32426C10.211 9.27543 10.1419 9.25739 10.0793 9.27826L8.49132 9.80759C8.30157 9.87084 8.09239 9.81493 7.9595 9.66543L5.76257 7.19388C5.69886 7.12221 5.58795 7.11895 5.52015 7.18675L1.9741 10.7328Z" fill="#EEEEEE"/>
</svg>
