<svg width="21" height="20" viewBox="0 0 21 20" fill="none" xmlns="http://www.w3.org/2000/svg">
<path d="M17.4512 10.4498C17.4512 9.20783 18.4592 8.19983 19.7013 8.19983V7.29982C19.7013 3.69981 18.8012 2.7998 15.2012 2.7998H6.20119C2.60118 2.7998 1.70117 3.69981 1.70117 7.29982V7.74983C2.94318 7.74983 3.95118 8.75783 3.95118 9.99984C3.95118 11.2418 2.94318 12.2498 1.70117 12.2498V12.6998C1.70117 16.2999 2.60118 17.1999 6.20119 17.1999H15.2012C18.8012 17.1999 19.7013 16.2999 19.7013 12.6998C18.4592 12.6998 17.4512 11.6918 17.4512 10.4498Z" stroke="#292D32" stroke-width="1.8" stroke-linecap="round" stroke-linejoin="round"/>
<path d="M8.90137 2.7998L8.90137 17.1999" stroke="#292D32" stroke-width="1.8" stroke-linecap="round" stroke-linejoin="round" stroke-dasharray="5.4 5.4"/>
</svg>
