<svg width="25" height="24" viewBox="0 0 25 24" fill="none" xmlns="http://www.w3.org/2000/svg">
<path d="M12.7012 2C10.7234 2 8.78997 2.58649 7.14547 3.6853C5.50098 4.78412 4.21926 6.3459 3.46238 8.17317C2.7055 10.0004 2.50747 12.0111 2.89332 13.9509C3.27918 15.8907 4.23158 17.6725 5.63011 19.0711C7.02863 20.4696 8.81046 21.422 10.7503 21.8079C12.6901 22.1937 14.7008 21.9957 16.528 21.2388C18.3553 20.4819 19.9171 19.2002 21.0159 17.5557C22.1147 15.9112 22.7012 13.9778 22.7012 12C22.7012 10.6868 22.4425 9.38642 21.94 8.17317C21.4374 6.95991 20.7008 5.85752 19.7722 4.92893C18.8437 4.00035 17.7413 3.26375 16.528 2.7612C15.3148 2.25866 14.0144 2 12.7012 2ZM12.7012 20C11.1189 20 9.57221 19.5308 8.25661 18.6518C6.94102 17.7727 5.91564 16.5233 5.31014 15.0615C4.70464 13.5997 4.54621 11.9911 4.85489 10.4393C5.16358 8.88743 5.9255 7.46197 7.04432 6.34315C8.16314 5.22433 9.58861 4.4624 11.1405 4.15372C12.6923 3.84504 14.3008 4.00346 15.7626 4.60896C17.2245 5.21447 18.4739 6.23984 19.3529 7.55544C20.232 8.87103 20.7012 10.4177 20.7012 12C20.7012 14.1217 19.8583 16.1566 18.358 17.6569C16.8577 19.1571 14.8229 20 12.7012 20ZM8.20118 10C8.20118 9.70333 8.28915 9.41332 8.45397 9.16665C8.61879 8.91997 8.85306 8.72771 9.12715 8.61418C9.40124 8.50065 9.70284 8.47094 9.99381 8.52882C10.2848 8.5867 10.5521 8.72956 10.7618 8.93934C10.9716 9.14912 11.1145 9.41639 11.1724 9.70736C11.2302 9.99834 11.2005 10.2999 11.087 10.574C10.9735 10.8481 10.7812 11.0824 10.5345 11.2472C10.2879 11.412 9.99785 11.5 9.70118 11.5C9.30335 11.5 8.92182 11.342 8.64052 11.0607C8.35921 10.7794 8.20118 10.3978 8.20118 10ZM17.2012 10C17.2012 10.2967 17.1132 10.5867 16.9484 10.8334C16.7836 11.08 16.5493 11.2723 16.2752 11.3858C16.0011 11.4994 15.6995 11.5291 15.4085 11.4712C15.1176 11.4133 14.8503 11.2704 14.6405 11.0607C14.4307 10.8509 14.2879 10.5836 14.23 10.2926C14.1721 10.0017 14.2018 9.70006 14.3154 9.42597C14.4289 9.15189 14.6211 8.91762 14.8678 8.7528C15.1145 8.58797 15.4045 8.5 15.7012 8.5C16.099 8.5 16.4805 8.65804 16.7618 8.93934C17.0431 9.22064 17.2012 9.60218 17.2012 10ZM16.4312 13.39C16.5314 13.454 16.618 13.5371 16.6859 13.6348C16.7538 13.7324 16.8017 13.8425 16.8268 13.9587C16.8519 14.0749 16.8537 14.195 16.8322 14.3119C16.8106 14.4289 16.7661 14.5404 16.7012 14.64C16.2641 15.2918 15.6733 15.8259 14.9809 16.1952C14.2886 16.5646 13.5159 16.7578 12.7312 16.7578C11.9464 16.7578 11.1738 16.5646 10.4814 16.1952C9.78903 15.8259 9.19823 15.2918 8.76118 14.64C8.69486 14.5422 8.64845 14.4322 8.62462 14.3165C8.60079 14.2007 8.6 14.0814 8.62228 13.9653C8.64457 13.8492 8.6895 13.7387 8.75451 13.64C8.81952 13.5413 8.90334 13.4563 9.00118 13.39C9.09917 13.3228 9.20962 13.276 9.32602 13.2522C9.44242 13.2284 9.5624 13.2281 9.6789 13.2514C9.7954 13.2747 9.90605 13.3211 10.0043 13.3878C10.1026 13.4546 10.1866 13.5403 10.2512 13.64C10.5248 14.0526 10.8963 14.391 11.3325 14.6251C11.7688 14.8592 12.2561 14.9817 12.7512 14.9817C13.2462 14.9817 13.7336 14.8592 14.1698 14.6251C14.606 14.391 14.9775 14.0526 15.2512 13.64C15.3806 13.4578 15.5738 13.3309 15.7924 13.2846C16.011 13.2383 16.239 13.2759 16.4312 13.39Z" fill="#222221"/>
</svg>
