<svg width="25" height="24" viewBox="0 0 25 24" fill="none" xmlns="http://www.w3.org/2000/svg">
<path d="M15.7012 11.85C15.1693 11.319 14.4526 11.0144 13.7012 11H13.6412H12.6412H11.7612C11.528 10.991 11.3066 10.8946 11.1412 10.73C11.0628 10.655 11.0003 10.565 10.9573 10.4654C10.9144 10.3657 10.8919 10.2585 10.8912 10.15V10.06C10.9314 9.76312 11.0812 9.49202 11.3112 9.3C11.7116 9.00171 12.2023 8.84992 12.7012 8.87C12.8443 8.85971 12.988 8.85971 13.1312 8.87C13.6912 8.94374 14.2149 9.18815 14.6312 9.57C14.7297 9.65733 14.8444 9.7244 14.9688 9.76739C15.0932 9.81038 15.2249 9.82845 15.3563 9.82056C15.4877 9.81266 15.6162 9.77897 15.7346 9.72139C15.853 9.66382 15.9588 9.58349 16.0462 9.485C16.1335 9.38651 16.2006 9.27178 16.2436 9.14737C16.2866 9.02295 16.3046 8.89129 16.2967 8.7599C16.2888 8.6285 16.2551 8.49995 16.1976 8.38157C16.14 8.2632 16.0597 8.15733 15.9612 8.07C15.3141 7.52232 14.5349 7.15345 13.7012 7V6C13.7012 5.73478 13.5958 5.48043 13.4083 5.29289C13.2207 5.10536 12.9664 5 12.7012 5C12.436 5 12.1816 5.10536 11.9941 5.29289C11.8065 5.48043 11.7012 5.73478 11.7012 6V7C11.0847 7.12118 10.5077 7.39253 10.0212 7.79C9.40153 8.31808 9.00492 9.06127 8.91118 9.87C8.90601 9.96326 8.90601 10.0567 8.91118 10.15C8.91551 10.9016 9.21757 11.6207 9.75118 12.15C10.2706 12.6693 10.9672 12.9729 11.7012 13H11.7612H12.7612H13.6412C13.8717 13.0125 14.0907 13.1044 14.2612 13.26C14.4183 13.4165 14.508 13.6283 14.5112 13.85V13.93C14.4715 14.2299 14.3218 14.5043 14.0912 14.7C13.6908 14.9983 13.2001 15.1501 12.7012 15.13C12.558 15.1403 12.4143 15.1403 12.2712 15.13C11.7138 15.0473 11.1926 14.8041 10.7712 14.43C10.6748 14.3344 10.56 14.2595 10.4337 14.2097C10.3074 14.1599 10.1723 14.1364 10.0366 14.1405C9.90094 14.1447 9.76753 14.1764 9.6445 14.2337C9.52148 14.2911 9.41142 14.3729 9.32103 14.4742C9.23064 14.5754 9.16181 14.694 9.11874 14.8228C9.07566 14.9515 9.05925 15.0876 9.07049 15.2229C9.08173 15.3582 9.12039 15.4897 9.18412 15.6096C9.24785 15.7294 9.33531 15.835 9.44118 15.92C10.0851 16.4745 10.8652 16.8473 11.7012 17V18C11.7012 18.2652 11.8065 18.5196 11.9941 18.7071C12.1816 18.8946 12.436 19 12.7012 19C12.9664 19 13.2207 18.8946 13.4083 18.7071C13.5958 18.5196 13.7012 18.2652 13.7012 18V17C14.3183 16.8751 14.8952 16.6004 15.3812 16.2C16.0048 15.6752 16.4024 14.9303 16.4912 14.12C16.4962 14.0267 16.4962 13.9333 16.4912 13.84C16.4975 13.099 16.214 12.3849 15.7012 11.85ZM22.7012 12C22.7012 13.9778 22.1147 15.9112 21.0159 17.5557C19.9171 19.2002 18.3553 20.4819 16.528 21.2388C14.7008 21.9957 12.6901 22.1937 10.7503 21.8079C8.81046 21.422 7.02863 20.4696 5.63011 19.0711C4.23158 17.6725 3.27918 15.8907 2.89332 13.9509C2.50747 12.0111 2.7055 10.0004 3.46238 8.17317C4.21926 6.3459 5.50098 4.78412 7.14547 3.6853C8.78997 2.58649 10.7234 2 12.7012 2C14.0144 2 15.3148 2.25866 16.528 2.7612C17.7413 3.26375 18.8437 4.00035 19.7722 4.92893C20.7008 5.85752 21.4374 6.95991 21.94 8.17317C22.4425 9.38642 22.7012 10.6868 22.7012 12ZM20.7012 12C20.6997 10.1492 20.0566 8.35623 18.8814 6.92646C17.7062 5.49669 16.0716 4.51862 14.2562 4.15887C12.4407 3.79913 10.5567 4.07998 8.92507 4.95356C7.29345 5.82715 6.0152 7.23943 5.30809 8.94978C4.60098 10.6601 4.50876 12.5628 5.04715 14.3335C5.58554 16.1042 6.72121 17.6335 8.2607 18.6608C9.80018 19.6881 11.6482 20.1498 13.49 19.9673C15.3317 19.7848 17.0532 18.9694 18.3612 17.66C19.1039 16.9165 19.6928 16.034 20.0943 15.0628C20.4958 14.0916 20.702 13.0509 20.7012 12Z" fill="#222221"/>
</svg>
