<svg width="25" height="24" viewBox="0 0 25 24" fill="none" xmlns="http://www.w3.org/2000/svg">
<path d="M16.7012 12C16.7012 12.2652 16.5958 12.5196 16.4083 12.7071C16.2207 12.8946 15.9664 13 15.7012 13H9.70117C9.43596 13 9.1816 12.8946 8.99407 12.7071C8.80653 12.5196 8.70117 12.2652 8.70117 12C8.70117 11.7348 8.80653 11.4804 8.99407 11.2929C9.1816 11.1054 9.43596 11 9.70117 11H15.7012C15.9664 11 16.2207 11.1054 16.4083 11.2929C16.5958 11.4804 16.7012 11.7348 16.7012 12ZM12.7012 15H9.70117C9.43596 15 9.1816 15.1054 8.99407 15.2929C8.80653 15.4804 8.70117 15.7348 8.70117 16C8.70117 16.2652 8.80653 16.5196 8.99407 16.7071C9.1816 16.8946 9.43596 17 9.70117 17H12.7012C12.9664 17 13.2207 16.8946 13.4083 16.7071C13.5958 16.5196 13.7012 16.2652 13.7012 16C13.7012 15.7348 13.5958 15.4804 13.4083 15.2929C13.2207 15.1054 12.9664 15 12.7012 15ZM21.7012 5V19C21.7012 19.7956 21.3851 20.5587 20.8225 21.1213C20.2599 21.6839 19.4968 22 18.7012 22H6.70117C5.90552 22 5.14246 21.6839 4.57985 21.1213C4.01724 20.5587 3.70117 19.7956 3.70117 19V5C3.70117 4.20435 4.01724 3.44129 4.57985 2.87868C5.14246 2.31607 5.90552 2 6.70117 2H18.7012C19.4968 2 20.2599 2.31607 20.8225 2.87868C21.3851 3.44129 21.7012 4.20435 21.7012 5ZM14.7012 6C14.9664 6 15.2207 5.89464 15.4083 5.70711C15.5958 5.51957 15.7012 5.26522 15.7012 5V4H9.70117V5C9.70117 5.26522 9.80653 5.51957 9.99407 5.70711C10.1816 5.89464 10.436 6 10.7012 6H14.7012ZM19.7012 5C19.7012 4.73478 19.5958 4.48043 19.4083 4.29289C19.2207 4.10536 18.9664 4 18.7012 4H17.7012V5C17.7012 5.79565 17.3851 6.55871 16.8225 7.12132C16.2599 7.68393 15.4968 8 14.7012 8H10.7012C9.90552 8 9.14246 7.68393 8.57985 7.12132C8.01724 6.55871 7.70117 5.79565 7.70117 5V4H6.70117C6.43596 4 6.1816 4.10536 5.99407 4.29289C5.80653 4.48043 5.70117 4.73478 5.70117 5V19C5.70117 19.2652 5.80653 19.5196 5.99407 19.7071C6.1816 19.8946 6.43596 20 6.70117 20H18.7012C18.9664 20 19.2207 19.8946 19.4083 19.7071C19.5958 19.5196 19.7012 19.2652 19.7012 19V5Z" fill="#222221"/>
</svg>
