<svg width="309" height="246" viewBox="0 0 309 246" fill="none" xmlns="http://www.w3.org/2000/svg">
<g filter="url(#filter0_d_1_1772)">
<path fill-rule="evenodd" clip-rule="evenodd" d="M5 54C5 49.5817 8.58172 46 13 46H296C300.418 46 304 49.5817 304 54V112.317C296.849 112.75 291.186 118.584 291.186 125.717C291.186 132.851 296.849 138.685 304 139.118V231C304 235.418 300.418 239 296 239H13C8.58173 239 5 235.418 5 231V139.118C12.151 138.685 17.8143 132.851 17.8143 125.717C17.8143 118.584 12.151 112.75 5 112.317V54Z" fill="#F8F8F8"/>
<circle cx="155" cy="40" r="37" fill="#FFD1C8"/>
<path fill-rule="evenodd" clip-rule="evenodd" d="M154.118 39.9376L134.375 20.0188H175.625L155.882 39.9377V66.4871H154.118V39.9376ZM163.099 67.5301C163.099 68.1058 159.509 68.5725 155.08 68.5725C150.651 68.5725 147.061 68.1058 147.061 67.5301C147.061 66.9543 150.651 66.4876 155.08 66.4876C159.509 66.4876 163.099 66.9543 163.099 67.5301Z" fill="#F14C29"/>
<ellipse cx="155.08" cy="67.5297" rx="8.01879" ry="1.04244" fill="#777777"/>
<rect x="154.101" y="45.6786" width="1.76413" height="20.8488" fill="#777777"/>
<path fill-rule="evenodd" clip-rule="evenodd" d="M160.195 28.0376C163.03 28.0376 165.327 24.4474 165.327 20.0188C165.327 15.5901 163.03 12 160.195 12C157.361 12 155.063 15.5901 155.063 20.0188C155.063 20.0188 155.063 20.0188 155.063 20.0188H160.195V28.0376C160.195 28.0376 160.195 28.0376 160.195 28.0376Z" fill="#FAB13C"/>
<path d="M303 142L5 142" stroke="#121212" stroke-opacity="0.0666667" stroke-width="1.02885" stroke-linejoin="round" stroke-dasharray="7.2 7.2"/>
</g>
<defs>
<filter id="filter0_d_1_1772" x="0" y="0" width="309" height="246" filterUnits="userSpaceOnUse" color-interpolation-filters="sRGB">
<feFlood flood-opacity="0" result="BackgroundImageFix"/>
<feColorMatrix in="SourceAlpha" type="matrix" values="0 0 0 0 0 0 0 0 0 0 0 0 0 0 0 0 0 0 127 0" result="hardAlpha"/>
<feOffset dy="2"/>
<feGaussianBlur stdDeviation="2.5"/>
<feComposite in2="hardAlpha" operator="out"/>
<feColorMatrix type="matrix" values="0 0 0 0 0 0 0 0 0 0 0 0 0 0 0 0 0 0 0.09 0"/>
<feBlend mode="normal" in2="BackgroundImageFix" result="effect1_dropShadow_1_1772"/>
<feBlend mode="normal" in="SourceGraphic" in2="effect1_dropShadow_1_1772" result="shape"/>
</filter>
</defs>
</svg>
