<?xml version="1.0" encoding="UTF-8"?>
<svg id="Layer_1" data-name="Layer 1" xmlns="http://www.w3.org/2000/svg" xmlns:xlink="http://www.w3.org/1999/xlink" viewBox="0 0 206.42 287.37">
  <defs>
    <style>
      .cls-1 {
        fill: url(#linear-gradient);
      }
    </style>
    <linearGradient id="linear-gradient" x1="103.21" y1="287.37" x2="103.21" y2="0" gradientUnits="userSpaceOnUse">
      <stop offset="0" stop-color="#fc9600"/>
      <stop offset="1" stop-color="#e93b0c"/>
    </linearGradient>
  </defs>
  <path class="cls-1" d="m76,41.93c-23.57,2.15-36.19,10.14-37.32,40.43v.09h0v.06h-1.29C35.4,56.93,28.04,43.22.14,41.99H.05s-.05,0-.05,0v-1.4C23.57,38.43,36.19,30.44,37.32.15V.06h0v-.06h1.29c1.98,25.59,9.34,39.29,37.24,40.52h.08s.05,0,.05,0v1.4Zm21.29,235.61c-24.49,0-13.65-22.26-11.04-27.06l.51-.9h0s0,0,0,0l16.48-29.08.1.17.05.09L206.31,38.85l.11-.2v-1.53h-.11s-10-.01-10-.01h0s-112.81,0-112.81,0l-3.45,9.83h48.02l-61.35,109.02.62,1.1,1.81,3.21,27.9,49.29.1.18-38.26,67.81v9.82h89l-3.45-9.82h-47.15Z"/>
</svg>