<svg width="366" height="141" viewBox="0 0 366 141" fill="none" xmlns="http://www.w3.org/2000/svg">
<g filter="url(#filter0_d_1_1866)">
<path fill-rule="evenodd" clip-rule="evenodd" d="M8 14C8 9.58172 11.5817 6 16 6H350C354.418 6 358 9.58172 358 14V52C349.163 52 342 59.1634 342 68C342 76.8366 349.163 84 358 84V123C358 127.418 354.418 131 350 131H16C11.5817 131 8 127.418 8 123V83.8762C15.8926 82.892 22 76.1592 22 68C22 59.8408 15.8926 53.108 8 52.1238V14Z" fill="white"/>
<circle cx="68" cy="69" r="37" fill="#F14C29" fill-opacity="0.05"/>
<path d="M63 52.8938H62.9928H62.9812C58.942 52.7149 57.8764 50.7222 57.5898 47H57.403V47.0087V47.0218C57.2394 51.4276 55.4123 52.5898 52 52.9025V53.1062H52.0072H52.0188C56.058 53.2851 57.1236 55.2778 57.4102 59H57.597V58.9913V58.9782C57.7606 54.5724 59.5877 53.4102 63 53.0975V52.8938Z" fill="#E93B0C"/>
<path d="M65.466 86.5874C61.98 86.5874 63.523 83.3853 63.8945 82.6948L63.9671 82.5653L66.313 78.3822L66.3272 78.4066L66.3343 78.4196L80.9843 52.2503L81 52.2215V52.0014H80.9843L79.5609 52H63.5031L63.012 53.414H69.8474L61.1146 69.0966L61.2028 69.2549L61.4604 69.7166L65.4318 76.807L65.4461 76.8329L60 86.5874V88H72.6686L72.1775 86.5874H65.466Z" fill="#E93B0C"/>
<path d="M128 25V112.452" stroke="#121212" stroke-opacity="0.0666667" stroke-width="1.02885" stroke-linejoin="round" stroke-dasharray="7.2 7.2"/>
</g>
<defs>
<filter id="filter0_d_1_1866" x="0" y="0" width="366" height="141" filterUnits="userSpaceOnUse" color-interpolation-filters="sRGB">
<feFlood flood-opacity="0" result="BackgroundImageFix"/>
<feColorMatrix in="SourceAlpha" type="matrix" values="0 0 0 0 0 0 0 0 0 0 0 0 0 0 0 0 0 0 127 0" result="hardAlpha"/>
<feOffset dy="2"/>
<feGaussianBlur stdDeviation="4"/>
<feComposite in2="hardAlpha" operator="out"/>
<feColorMatrix type="matrix" values="0 0 0 0 0 0 0 0 0 0 0 0 0 0 0 0 0 0 0.1 0"/>
<feBlend mode="normal" in2="BackgroundImageFix" result="effect1_dropShadow_1_1866"/>
<feBlend mode="normal" in="SourceGraphic" in2="effect1_dropShadow_1_1866" result="shape"/>
</filter>
</defs>
</svg>
