<svg width="366" height="141" viewBox="0 0 366 141" fill="none" xmlns="http://www.w3.org/2000/svg">
<g filter="url(#filter0_d_333_6181)">
<path fill-rule="evenodd" clip-rule="evenodd" d="M8 14C8 9.58172 11.5817 6 16 6H350C354.418 6 358 9.58172 358 14V52C349.163 52 342 59.1634 342 68C342 76.8366 349.163 84 358 84V123C358 127.418 354.418 131 350 131H16C11.5817 131 8 127.418 8 123V83.8762C15.8926 82.892 22 76.1592 22 68C22 59.8408 15.8926 53.108 8 52.1238V14Z" fill="white"/>
<circle cx="68" cy="58" r="37" fill="#F14C29" fill-opacity="0.05"/>
<path d="M128 25V112.452" stroke="#121212" stroke-opacity="0.0666667" stroke-width="1.02885" stroke-linejoin="round" stroke-dasharray="7.2 7.2"/>
<path fill-rule="evenodd" clip-rule="evenodd" d="M67.1176 57.9372L47.375 38.0188H88.6252L68.8818 57.938V84.487H67.1176V57.9372ZM76.0985 85.53C76.0985 86.1057 72.5084 86.5724 68.0797 86.5724C63.6511 86.5724 60.0609 86.1057 60.0609 85.53C60.0609 84.9543 63.6511 84.4875 68.0797 84.4875C72.5084 84.4875 76.0985 84.9543 76.0985 85.53Z" fill="#F14C29"/>
<ellipse cx="68.0793" cy="85.5297" rx="8.01879" ry="1.04244" fill="#777777"/>
<rect x="67.1006" y="63.6787" width="1.76413" height="20.8488" fill="#777777"/>
<path fill-rule="evenodd" clip-rule="evenodd" d="M73.1948 46.0376C76.029 46.0373 78.3265 42.4473 78.3265 38.0188C78.3265 33.5901 76.0289 30 73.1945 30C70.3602 30 68.0625 33.5901 68.0625 38.0188C68.0625 38.0188 68.0625 38.0188 68.0625 38.0188H73.1948V46.0376Z" fill="#FAB13C"/>
<rect x="28" y="97" width="80" height="20" rx="10" fill="#F14C29"/>
<path d="M43.7543 109.29C44.0143 109.29 44.201 109.323 44.3143 109.39C44.4343 109.45 44.5143 109.54 44.5543 109.66C44.601 109.78 44.6243 109.933 44.6243 110.12C44.6243 110.307 44.6077 110.457 44.5743 110.57C44.541 110.683 44.501 110.77 44.4543 110.83C44.4077 110.89 44.3377 110.933 44.2443 110.96C44.1377 111 43.9677 111.02 43.7343 111.02H39.5743C39.421 111.02 39.2743 110.98 39.1343 110.9C38.841 110.733 38.6943 110.47 38.6943 110.11C38.6943 109.937 38.7343 109.797 38.8143 109.69L41.9143 105.4H39.6143C39.4543 105.4 39.3343 105.397 39.2543 105.39C39.181 105.377 39.091 105.347 38.9843 105.3C38.791 105.207 38.6943 104.957 38.6943 104.55C38.6943 104.123 38.7843 103.863 38.9643 103.77C39.0643 103.717 39.151 103.687 39.2243 103.68C39.3043 103.667 39.4243 103.66 39.5843 103.66H43.6043C43.7577 103.66 43.9043 103.7 44.0443 103.78C44.1843 103.86 44.291 103.967 44.3643 104.1C44.4443 104.233 44.4843 104.39 44.4843 104.57C44.4843 104.75 44.4443 104.893 44.3643 105L41.2643 109.29H43.7543ZM49.5001 104.19L52.2001 109.77C52.3135 109.997 52.3701 110.167 52.3701 110.28C52.3701 110.52 52.1768 110.737 51.7901 110.93C51.5635 111.043 51.3835 111.1 51.2501 111.1C51.1235 111.1 51.0168 111.07 50.9301 111.01C50.8501 110.95 50.7901 110.887 50.7501 110.82C50.7168 110.753 50.6668 110.653 50.6001 110.52L50.0801 109.44H47.3101L46.7901 110.52C46.7235 110.653 46.6701 110.75 46.6301 110.81C46.5968 110.87 46.5368 110.933 46.4501 111C46.3701 111.06 46.2635 111.09 46.1301 111.09C46.0035 111.09 45.8268 111.033 45.6001 110.92C45.2135 110.733 45.0201 110.52 45.0201 110.28C45.0201 110.167 45.0768 109.997 45.1901 109.77L47.8901 104.18C47.9635 104.027 48.0735 103.903 48.2201 103.81C48.3735 103.717 48.5335 103.67 48.7001 103.67C49.0601 103.67 49.3268 103.843 49.5001 104.19ZM48.6901 106.59L48.0301 107.96H49.3601L48.6901 106.59ZM57.6466 103.98C57.7133 103.86 57.8099 103.78 57.9366 103.74C58.0633 103.7 58.2199 103.68 58.4066 103.68C58.5999 103.68 58.7533 103.697 58.8666 103.73C58.9866 103.763 59.0733 103.803 59.1266 103.85C59.1866 103.897 59.2299 103.967 59.2566 104.06C59.2966 104.167 59.3166 104.337 59.3166 104.57V110.12C59.3166 110.28 59.3099 110.397 59.2966 110.47C59.2899 110.543 59.2599 110.63 59.2066 110.73C59.1133 110.91 58.8533 111 58.4266 111C58.1666 111 57.9866 110.98 57.8866 110.94C57.7866 110.9 57.7033 110.837 57.6366 110.75C56.1366 108.75 55.1499 107.443 54.6766 106.83V110.12C54.6766 110.28 54.6699 110.397 54.6566 110.47C54.6499 110.543 54.6199 110.63 54.5666 110.73C54.4733 110.91 54.2133 111 53.7866 111C53.3733 111 53.1199 110.91 53.0266 110.73C52.9733 110.63 52.9399 110.54 52.9266 110.46C52.9199 110.38 52.9166 110.263 52.9166 110.11V104.53C52.9166 104.277 52.9466 104.093 53.0066 103.98C53.0733 103.86 53.1699 103.78 53.2966 103.74C53.4233 103.7 53.5866 103.68 53.7866 103.68C53.9866 103.68 54.1433 103.7 54.2566 103.74C54.3766 103.773 54.4599 103.813 54.5066 103.86C54.5333 103.88 54.6099 103.967 54.7366 104.12C56.1433 106.033 57.0833 107.297 57.5566 107.91V104.53C57.5566 104.277 57.5866 104.093 57.6466 103.98ZM67.2232 109.08L67.4032 108.95C67.6298 108.817 67.7898 108.75 67.8832 108.75C68.0898 108.75 68.3132 108.937 68.5532 109.31C68.6998 109.543 68.7732 109.73 68.7732 109.87C68.7732 110.01 68.7265 110.127 68.6332 110.22C68.5465 110.313 68.4432 110.397 68.3232 110.47C68.2032 110.543 68.0865 110.613 67.9732 110.68C67.8665 110.747 67.6432 110.833 67.3032 110.94C66.9632 111.047 66.6332 111.1 66.3132 111.1C65.9998 111.1 65.6798 111.06 65.3532 110.98C65.0332 110.893 64.6998 110.753 64.3532 110.56C64.0132 110.36 63.7065 110.12 63.4332 109.84C63.1598 109.553 62.9332 109.19 62.7532 108.75C62.5798 108.303 62.4932 107.82 62.4932 107.3C62.4932 106.78 62.5798 106.31 62.7532 105.89C62.9265 105.463 63.1465 105.113 63.4132 104.84C63.6865 104.56 63.9965 104.327 64.3432 104.14C64.9965 103.78 65.6532 103.6 66.3132 103.6C66.6265 103.6 66.9432 103.65 67.2632 103.75C67.5898 103.843 67.8365 103.94 68.0032 104.04L68.2432 104.18C68.3632 104.253 68.4565 104.313 68.5232 104.36C68.6965 104.5 68.7832 104.66 68.7832 104.84C68.7832 105.013 68.7132 105.197 68.5732 105.39C68.3132 105.75 68.0798 105.93 67.8732 105.93C67.7532 105.93 67.5832 105.857 67.3632 105.71C67.0832 105.483 66.7098 105.37 66.2432 105.37C65.8098 105.37 65.3832 105.52 64.9632 105.82C64.7632 105.967 64.5965 106.173 64.4632 106.44C64.3298 106.707 64.2632 107.01 64.2632 107.35C64.2632 107.683 64.3298 107.983 64.4632 108.25C64.5965 108.517 64.7665 108.727 64.9732 108.88C65.3798 109.173 65.8032 109.32 66.2432 109.32C66.4498 109.32 66.6432 109.293 66.8232 109.24C67.0098 109.187 67.1432 109.133 67.2232 109.08ZM74.2203 103.94C74.2869 103.833 74.3836 103.76 74.5103 103.72C74.6369 103.68 74.7936 103.66 74.9803 103.66C75.1736 103.66 75.3269 103.677 75.4403 103.71C75.5536 103.743 75.6403 103.783 75.7003 103.83C75.7603 103.877 75.8036 103.947 75.8303 104.04C75.8703 104.153 75.8903 104.327 75.8903 104.56V107.58C75.8903 108.46 75.6169 109.26 75.0703 109.98C74.8036 110.32 74.4603 110.597 74.0403 110.81C73.6203 111.017 73.1536 111.12 72.6403 111.12C72.1336 111.12 71.6703 111.013 71.2503 110.8C70.8369 110.587 70.5003 110.307 70.2403 109.96C69.7003 109.253 69.4303 108.453 69.4303 107.56V104.55C69.4303 104.39 69.4336 104.273 69.4403 104.2C69.4536 104.12 69.4869 104.03 69.5403 103.93C69.5936 103.83 69.6836 103.76 69.8103 103.72C69.9369 103.68 70.1069 103.66 70.3203 103.66C70.5336 103.66 70.7036 103.68 70.8303 103.72C70.9569 103.76 71.0436 103.83 71.0903 103.93C71.1703 104.083 71.2103 104.293 71.2103 104.56V107.56C71.2103 107.967 71.3103 108.353 71.5103 108.72C71.6103 108.907 71.7603 109.057 71.9603 109.17C72.1603 109.283 72.3969 109.34 72.6703 109.34C73.1569 109.34 73.5203 109.16 73.7603 108.8C74.0003 108.44 74.1203 108.023 74.1203 107.55V104.49C74.1203 104.23 74.1536 104.047 74.2203 103.94ZM82.0961 105.15C82.2695 105.503 82.3561 105.897 82.3561 106.33C82.3561 106.763 82.2695 107.157 82.0961 107.51C81.9228 107.857 81.6995 108.133 81.4261 108.34C80.8728 108.767 80.2995 108.98 79.7061 108.98H78.4561V110.11C78.4561 110.263 78.4495 110.38 78.4361 110.46C78.4295 110.533 78.3995 110.62 78.3461 110.72C78.2528 110.9 77.9928 110.99 77.5661 110.99C77.0995 110.99 76.8261 110.867 76.7461 110.62C76.7061 110.507 76.6861 110.333 76.6861 110.1V104.55C76.6861 104.397 76.6895 104.283 76.6961 104.21C76.7095 104.13 76.7428 104.04 76.7961 103.94C76.8895 103.76 77.1495 103.67 77.5761 103.67H79.7161C80.3028 103.67 80.8728 103.883 81.4261 104.31C81.6995 104.517 81.9228 104.797 82.0961 105.15ZM79.7161 107.21C79.9161 107.21 80.1128 107.137 80.3061 106.99C80.4995 106.843 80.5961 106.623 80.5961 106.33C80.5961 106.037 80.4995 105.817 80.3061 105.67C80.1128 105.517 79.9128 105.44 79.7061 105.44H78.4561V107.21H79.7161ZM86.4445 103.58C87.4312 103.58 88.2878 103.937 89.0145 104.65C89.7412 105.363 90.1045 106.25 90.1045 107.31C90.1045 108.363 89.7578 109.263 89.0645 110.01C88.3712 110.75 87.5178 111.12 86.5045 111.12C85.4912 111.12 84.6278 110.753 83.9145 110.02C83.2078 109.287 82.8545 108.413 82.8545 107.4C82.8545 106.847 82.9545 106.33 83.1545 105.85C83.3545 105.363 83.6212 104.957 83.9545 104.63C84.2878 104.303 84.6712 104.047 85.1045 103.86C85.5378 103.673 85.9845 103.58 86.4445 103.58ZM84.6245 107.35C84.6245 107.943 84.8145 108.427 85.1945 108.8C85.5812 109.167 86.0112 109.35 86.4845 109.35C86.9578 109.35 87.3845 109.17 87.7645 108.81C88.1445 108.45 88.3345 107.967 88.3345 107.36C88.3345 106.753 88.1412 106.267 87.7545 105.9C87.3745 105.533 86.9478 105.35 86.4745 105.35C86.0012 105.35 85.5745 105.537 85.1945 105.91C84.8145 106.277 84.6245 106.757 84.6245 107.35ZM95.4884 103.98C95.5551 103.86 95.6517 103.78 95.7784 103.74C95.9051 103.7 96.0617 103.68 96.2484 103.68C96.4417 103.68 96.5951 103.697 96.7084 103.73C96.8284 103.763 96.9151 103.803 96.9684 103.85C97.0284 103.897 97.0717 103.967 97.0984 104.06C97.1384 104.167 97.1584 104.337 97.1584 104.57V110.12C97.1584 110.28 97.1517 110.397 97.1384 110.47C97.1317 110.543 97.1017 110.63 97.0484 110.73C96.9551 110.91 96.6951 111 96.2684 111C96.0084 111 95.8284 110.98 95.7284 110.94C95.6284 110.9 95.5451 110.837 95.4784 110.75C93.9784 108.75 92.9917 107.443 92.5184 106.83V110.12C92.5184 110.28 92.5117 110.397 92.4984 110.47C92.4917 110.543 92.4617 110.63 92.4084 110.73C92.3151 110.91 92.0551 111 91.6284 111C91.2151 111 90.9617 110.91 90.8684 110.73C90.8151 110.63 90.7817 110.54 90.7684 110.46C90.7617 110.38 90.7584 110.263 90.7584 110.11V104.53C90.7584 104.277 90.7884 104.093 90.8484 103.98C90.9151 103.86 91.0117 103.78 91.1384 103.74C91.2651 103.7 91.4284 103.68 91.6284 103.68C91.8284 103.68 91.9851 103.7 92.0984 103.74C92.2184 103.773 92.3017 103.813 92.3484 103.86C92.3751 103.88 92.4517 103.967 92.5784 104.12C93.9851 106.033 94.9251 107.297 95.3984 107.91V104.53C95.3984 104.277 95.4284 104.093 95.4884 103.98Z" fill="white"/>
</g>
<defs>
<filter id="filter0_d_333_6181" x="0" y="0" width="366" height="141" filterUnits="userSpaceOnUse" color-interpolation-filters="sRGB">
<feFlood flood-opacity="0" result="BackgroundImageFix"/>
<feColorMatrix in="SourceAlpha" type="matrix" values="0 0 0 0 0 0 0 0 0 0 0 0 0 0 0 0 0 0 127 0" result="hardAlpha"/>
<feOffset dy="2"/>
<feGaussianBlur stdDeviation="4"/>
<feComposite in2="hardAlpha" operator="out"/>
<feColorMatrix type="matrix" values="0 0 0 0 0 0 0 0 0 0 0 0 0 0 0 0 0 0 0.1 0"/>
<feBlend mode="normal" in2="BackgroundImageFix" result="effect1_dropShadow_333_6181"/>
<feBlend mode="normal" in="SourceGraphic" in2="effect1_dropShadow_333_6181" result="shape"/>
</filter>
</defs>
</svg>
