<svg width="61" height="23" viewBox="0 0 61 23" fill="none" xmlns="http://www.w3.org/2000/svg">
<g opacity="0.9">
<path d="M25.3583 21.5605C24.9591 21.0389 24.7287 20.351 24.7287 19.8829C24.1567 20.9835 23.2133 22 20.7565 22C17.4417 22 16.127 20.0759 16.127 17.6282C16.127 14.5214 18.1845 13.2565 20.6989 12.2935C23.4139 11.2484 23.7575 11.1108 24.7565 10.2586V8.22369C24.7565 6.02445 23.9283 4.75956 21.5847 4.75956C20.0415 4.75956 19.1836 5.30985 18.2124 6.49258L17.2987 6.05312C18.4984 4.51308 20.3275 3.71631 22.6711 3.71631C26.2719 3.71631 27.7297 5.61365 27.7297 7.81289V19.3058C27.7297 20.2689 27.9303 20.9548 28.4447 21.5605H25.3583ZM24.7585 11.1662C23.9303 11.7986 23.1855 12.1559 21.2709 13.0368C19.7277 13.7246 19.0982 14.9341 19.0982 17.078C19.0982 19.4434 19.8707 21.1478 21.5847 21.1478C23.1577 21.1478 24.2997 19.6345 24.7565 17.9301V11.1662H24.7585Z" fill="black"/>
<path d="M39.3284 21.5605V8.72048C39.3284 6.49258 38.1844 5.11878 36.5558 5.11878C34.9272 5.11878 34.0692 6.41042 33.6402 8.30776V21.5605H30.667V4.81497L33.6402 3.93604V6.43908C34.0692 5.42067 35.1258 3.71631 37.7276 3.71631C40.5002 3.71631 42.3015 5.6404 42.3015 8.30776V21.5605H39.3284Z" fill="black"/>
<path d="M45.0342 21.5605V4.6067L48.0074 3.71631V21.5605H45.0342Z" fill="black"/>
<path d="M58.9474 21.121C58.1748 21.8089 57.2612 22.0018 56.2026 22.0018C52.9435 22.0018 51.5731 20.1867 51.5731 17.6015V4.87035H50.1729V4.10033C52.4886 4.10033 53.7736 2.89085 54.288 0.469971H54.5462V4.10033H56.9474V4.87035H54.5462V17.9855C54.5462 19.4969 55.2612 21.1191 57.0904 21.1191C57.6902 21.1191 58.0914 20.9548 58.6912 20.4866L58.9474 21.1191V21.121Z" fill="black"/>
<path d="M1.90625 0L5.84269 6.92826L6.27765 6.75057C4.74835 4.32778 4.0135 0.980198 6.05123 0.754734H10.6212L2.19225 21.5605H14.4246V20.8058H5.70764L14.0254 0H1.90625Z" fill="black"/>
</g>
</svg>
