<svg width="366" height="141" viewBox="0 0 366 141" fill="none" xmlns="http://www.w3.org/2000/svg">
<g filter="url(#filter0_d_72_4666)">
<path fill-rule="evenodd" clip-rule="evenodd" d="M8 14C8 9.58172 11.5817 6 16 6H350C354.418 6 358 9.58172 358 14V52C349.163 52 342 59.1634 342 68C342 76.8366 349.163 84 358 84V123C358 127.418 354.418 131 350 131H16C11.5817 131 8 127.418 8 123V83.8762C15.8926 82.892 22 76.1592 22 68C22 59.8408 15.8926 53.108 8 52.1238V14Z" fill="white"/>
<circle cx="68" cy="69" r="37" fill="#F14C29" fill-opacity="0.05"/>
<path d="M62.9444 51.8577C59.0616 52.2094 56.9826 53.5162 56.7965 58.4702V58.4849V58.4947H56.5839C56.2578 54.3094 55.0453 52.0687 50.4492 51.8676H50.436H50.4277V51.6386C54.3106 51.2869 56.3896 49.9802 56.5757 45.0262V45.0098V45H56.7882C57.1144 49.1853 58.3269 51.426 62.923 51.6271H62.9362H62.9444V51.8561V51.8577ZM66.4517 90.3923C62.4173 90.3923 64.203 86.7516 64.633 85.9666L64.717 85.8194L67.4319 81.0633L67.4483 81.0911L67.4566 81.1058L84.4096 51.354L84.4277 51.3213V51.0711H84.4096L82.7622 51.0694H64.1783L63.61 52.6771H71.5206L61.414 70.5076L61.5162 70.6875L61.8143 71.2125L66.4105 79.274L66.427 79.3034L60.1241 90.3939V92H74.7857L74.2174 90.3939H66.45L66.4517 90.3923Z" fill="url(#paint0_linear_72_4666)"/>
<path d="M128 25V112.452" stroke="#121212" stroke-opacity="0.0666667" stroke-width="1.02885" stroke-linejoin="round" stroke-dasharray="7.2 7.2"/>
</g>
<path d="M272 4H322V62.1233C322 65.191 318.689 67.1169 316.022 65.6003L298.978 55.906C297.751 55.2086 296.249 55.2086 295.022 55.906L277.978 65.6003C275.311 67.1169 272 65.191 272 62.1233V4Z" fill="#F14C29"/>
<path d="M279.774 39V37.47C283.392 34.23 285.534 31.728 285.534 29.676C285.534 28.326 284.814 27.516 283.536 27.516C282.564 27.516 281.772 28.146 281.088 28.884L279.648 27.444C280.872 26.13 282.06 25.428 283.878 25.428C286.398 25.428 288.072 27.048 288.072 29.532C288.072 31.944 286.074 34.536 283.644 36.912C284.31 36.84 285.192 36.768 285.822 36.768H288.702V39H279.774ZM294.67 39.252C292.564 39.252 291.16 38.424 290.17 37.434L291.394 35.742C292.15 36.48 293.086 37.092 294.328 37.092C295.714 37.092 296.686 36.21 296.686 34.644C296.686 33.096 295.786 32.232 294.436 32.232C293.644 32.232 293.212 32.43 292.438 32.934L291.232 32.142L291.592 25.662H298.72V27.894H293.878L293.626 30.72C294.166 30.468 294.616 30.342 295.228 30.342C297.46 30.342 299.332 31.674 299.332 34.572C299.332 37.542 297.136 39.252 294.67 39.252ZM303.373 35.01C301.889 35.01 300.853 33.792 300.853 31.706C300.853 29.634 301.889 28.444 303.373 28.444C304.857 28.444 305.907 29.634 305.907 31.706C305.907 33.792 304.857 35.01 303.373 35.01ZM303.373 33.848C303.975 33.848 304.451 33.232 304.451 31.706C304.451 30.18 303.975 29.606 303.373 29.606C302.771 29.606 302.309 30.18 302.309 31.706C302.309 33.232 302.771 33.848 303.373 33.848ZM303.723 39.196L309.351 28.444H310.569L304.941 39.196H303.723ZM310.905 39.196C309.435 39.196 308.385 37.964 308.385 35.892C308.385 33.806 309.435 32.616 310.905 32.616C312.375 32.616 313.439 33.806 313.439 35.892C313.439 37.964 312.375 39.196 310.905 39.196ZM310.905 38.02C311.507 38.02 311.983 37.418 311.983 35.892C311.983 34.366 311.507 33.778 310.905 33.778C310.303 33.778 309.841 34.366 309.841 35.892C309.841 37.418 310.303 38.02 310.905 38.02Z" fill="white"/>
<path d="M152.691 52V50.5349L158.371 41.8432H153.235V39.8185H161.367V41.2835L155.687 49.9588H161.432V52H152.691ZM165.417 52.2305C163.77 52.2305 162.7 51.0782 162.7 49.4978C162.7 47.5389 164.297 46.5018 168.001 46.0903C167.952 45.1849 167.573 44.51 166.437 44.51C165.581 44.51 164.742 44.8722 163.902 45.3825L163.03 43.7692C164.116 43.1108 165.417 42.5675 166.882 42.5675C169.219 42.5675 170.421 43.9503 170.421 46.6335V52H168.445L168.264 51.0288H168.199C167.392 51.7202 166.47 52.2305 165.417 52.2305ZM166.207 50.3374C166.898 50.3374 167.408 50.0246 168.001 49.4485V47.5883C165.746 47.8682 165.005 48.4772 165.005 49.3168C165.005 50.0246 165.499 50.3374 166.207 50.3374ZM172.99 52V42.798H174.949L175.146 44.0162H175.196C175.986 43.226 176.941 42.5675 178.192 42.5675C180.167 42.5675 181.04 43.9503 181.04 46.2549V52H178.62V46.5677C178.62 45.1191 178.208 44.6417 177.319 44.6417C176.562 44.6417 176.085 45.0038 175.41 45.6623V52H172.99ZM183.639 52V42.798H186.058V52H183.639ZM184.84 41.3C184.001 41.3 183.441 40.7732 183.441 39.9666C183.441 39.1765 184.001 38.6662 184.84 38.6662C185.68 38.6662 186.256 39.1765 186.256 39.9666C186.256 40.7732 185.68 41.3 184.84 41.3ZM192.099 52.2305C189.91 52.2305 189.07 50.8477 189.07 48.79V44.6911H187.786V42.8968L189.218 42.798L189.482 40.2958H191.49V42.798H193.778V44.6911H191.49V48.79C191.49 49.8435 191.935 50.3374 192.741 50.3374C193.054 50.3374 193.4 50.2222 193.663 50.1234L194.058 51.8848C193.564 52.0494 192.922 52.2305 192.099 52.2305ZM209.877 38.2382H211.968V46.9957H209.877V38.2382ZM206.815 38.5015H208.873V46.8475H206.815V38.5015ZM204.971 41.7938H207.408V43.5717H204.971V41.7938ZM199.49 39.3411H205.531V46.1232H199.49V39.3411ZM203.49 40.9872H201.531V44.4935H203.49V40.9872ZM201.63 47.6212H211.968V53.3005H201.63V47.6212ZM209.811 49.3332H203.786V51.572H209.811V49.3332ZM224.827 38.2052H227V53.498H224.827V38.2052ZM221.37 43.5717H225.452V45.3331H221.37V43.5717ZM214.769 39.4069H216.942V43.0943H219.938V39.4069H222.094V49.9094H214.769V39.4069ZM216.942 44.7898V48.148H219.938V44.7898H216.942ZM233.028 38.6826H234.838V40.0818C234.838 42.8968 233.423 45.4483 230.443 46.3372L229.373 44.6088C231.941 43.8351 233.028 41.9255 233.028 40.0818V38.6826ZM233.472 38.6826H235.266V40.0818C235.266 41.8762 236.336 43.654 238.822 44.3618L237.768 46.0738C234.838 45.2014 233.472 42.8309 233.472 40.0818V38.6826ZM239.925 38.2217H242.131V46.4195H239.925V38.2217ZM231.99 47.078H234.147V48.4937H239.958V47.078H242.131V53.3005H231.99V47.078ZM234.147 50.1728V51.5555H239.958V50.1728H234.147Z" fill="#121212"/>
<path d="M156.465 79.3462C154.809 79.3462 153.786 78.6548 153.094 77.8914L153.757 77.0272C154.376 77.6753 155.169 78.2515 156.379 78.2515C157.632 78.2515 158.525 77.4881 158.525 76.2782C158.525 75.0106 157.675 74.1752 155.241 74.1752V73.1525C157.416 73.1525 158.15 72.2883 158.15 71.136C158.15 70.1277 157.473 69.4651 156.379 69.4651C155.529 69.4651 154.78 69.8973 154.189 70.5022L153.483 69.6524C154.276 68.9322 155.212 68.3993 156.422 68.3993C158.193 68.3993 159.49 69.3643 159.49 71.0496C159.49 72.3315 158.741 73.1813 157.617 73.5846V73.6423C158.856 73.9447 159.864 74.881 159.864 76.3358C159.864 78.2083 158.352 79.3462 156.465 79.3462ZM164.14 79.3462C162.987 79.3462 162.181 78.8853 161.59 78.2659L162.325 77.4305C162.771 77.949 163.42 78.2515 164.097 78.2515C165.508 78.2515 166.732 77.0272 166.732 73.4118C166.732 70.8191 165.911 69.4219 164.428 69.4219C163.42 69.4219 162.642 70.3726 162.642 71.8274C162.642 73.239 163.276 74.1752 164.529 74.1752C165.234 74.1752 166.055 73.7575 166.747 72.706L166.819 73.7575C166.156 74.5929 165.22 75.1403 164.313 75.1403C162.541 75.1403 161.403 74.0168 161.403 71.8274C161.403 69.782 162.786 68.3993 164.428 68.3993C166.459 68.3993 167.971 70.0557 167.971 73.4118C167.971 77.7041 166.128 79.3462 164.14 79.3462ZM169.928 81.8813L169.625 81.1179C170.518 80.7146 171.066 79.9944 171.066 79.1157L170.922 77.9346L171.555 78.8853C171.382 79.1013 171.152 79.1733 170.893 79.1733C170.389 79.1733 169.942 78.8421 169.942 78.2515C169.942 77.6753 170.389 77.3296 170.922 77.3296C171.613 77.3296 172.031 77.9202 172.031 78.8709C172.031 80.268 171.238 81.3483 169.928 81.8813ZM176.978 79.3462C174.961 79.3462 173.679 77.5169 173.679 73.8295C173.679 70.1709 174.961 68.3993 176.978 68.3993C178.966 68.3993 180.248 70.1709 180.248 73.8295C180.248 77.5169 178.966 79.3462 176.978 79.3462ZM176.978 78.2803C178.173 78.2803 178.98 76.9407 178.98 73.8295C178.98 70.7615 178.173 69.4507 176.978 69.4507C175.768 69.4507 174.947 70.7615 174.947 73.8295C174.947 76.9407 175.768 78.2803 176.978 78.2803ZM185.07 79.3462C183.054 79.3462 181.772 77.5169 181.772 73.8295C181.772 70.1709 183.054 68.3993 185.07 68.3993C187.058 68.3993 188.34 70.1709 188.34 73.8295C188.34 77.5169 187.058 79.3462 185.07 79.3462ZM185.07 78.2803C186.266 78.2803 187.072 76.9407 187.072 73.8295C187.072 70.7615 186.266 69.4507 185.07 69.4507C183.86 69.4507 183.039 70.7615 183.039 73.8295C183.039 76.9407 183.86 78.2803 185.07 78.2803ZM193.163 79.3462C191.146 79.3462 189.864 77.5169 189.864 73.8295C189.864 70.1709 191.146 68.3993 193.163 68.3993C195.151 68.3993 196.433 70.1709 196.433 73.8295C196.433 77.5169 195.151 79.3462 193.163 79.3462ZM193.163 78.2803C194.358 78.2803 195.165 76.9407 195.165 73.8295C195.165 70.7615 194.358 69.4507 193.163 69.4507C191.953 69.4507 191.132 70.7615 191.132 73.8295C191.132 76.9407 191.953 78.2803 193.163 78.2803ZM201.659 73.8007H202.854V76.6959H201.659V73.8007ZM207.435 67.247H208.63V77.1568H207.435V67.247ZM199.743 79.0005H208.947V79.98H199.743V79.0005ZM199.743 76.1917H200.939V79.2742H199.743V76.1917ZM198.058 74.2472L197.899 73.2678C200.305 73.2678 203.531 73.239 206.297 72.8789L206.383 73.7575C203.574 74.204 200.42 74.2472 198.058 74.2472ZM204.784 74.9386H207.737V75.8172H204.784V74.9386ZM202.134 67.7799C204.035 67.7799 205.332 68.6729 205.332 70.0413C205.332 71.4241 204.035 72.3171 202.134 72.3171C200.218 72.3171 198.922 71.4241 198.922 70.0413C198.922 68.6729 200.218 67.7799 202.134 67.7799ZM202.134 68.6729C200.91 68.6729 200.06 69.2059 200.06 70.0413C200.06 70.8767 200.91 71.4097 202.134 71.4097C203.344 71.4097 204.194 70.8767 204.194 70.0413C204.194 69.2059 203.344 68.6729 202.134 68.6729Z" fill="#121212" fill-opacity="0.8"/>
<path d="M152.677 74.4633H210.503V75.1835H152.677V74.4633Z" fill="#121212" fill-opacity="0.8"/>
<path d="M153.008 103.461V101.445C157.856 97.1009 160.688 93.7649 160.688 91.0289C160.688 89.2529 159.752 88.1489 158.048 88.1489C156.728 88.1489 155.696 88.9889 154.784 89.9969L152.84 88.0769C154.472 86.3249 156.08 85.3889 158.504 85.3889C161.84 85.3889 164.096 87.5249 164.096 90.8369C164.096 94.0769 161.408 97.5329 158.168 100.701C159.056 100.605 160.232 100.485 161.072 100.485H164.912V103.461H153.008ZM172.379 103.797C170.147 103.797 168.563 102.885 167.483 101.781L169.355 99.6449C170.027 100.389 171.107 100.941 172.163 100.941C174.251 100.941 175.955 99.2609 175.955 94.1729C175.955 89.6369 174.587 88.0289 172.859 88.0289C171.515 88.0289 170.435 89.1089 170.435 91.3169C170.435 93.3809 171.443 94.3889 172.955 94.3889C173.963 94.3889 175.067 93.8369 175.931 92.3729L176.123 94.7729C175.163 96.0929 173.555 96.8849 172.307 96.8849C169.331 96.8849 167.219 95.0849 167.219 91.3169C167.219 87.6449 169.763 85.3889 172.787 85.3889C176.171 85.3889 179.195 88.0289 179.195 94.1729C179.195 100.893 175.907 103.797 172.379 103.797ZM182.51 108.597L181.79 106.677C183.662 105.981 184.694 104.709 184.67 103.293L184.55 100.797L185.798 102.861C185.438 103.221 184.958 103.389 184.43 103.389C183.278 103.389 182.222 102.621 182.222 101.301C182.222 100.029 183.254 99.2129 184.526 99.2129C186.134 99.2129 187.046 100.509 187.046 102.669C187.046 105.501 185.438 107.637 182.51 108.597ZM195.506 103.797C191.882 103.797 189.482 100.653 189.482 94.5089C189.482 88.3889 191.882 85.3889 195.506 85.3889C199.106 85.3889 201.506 88.3889 201.506 94.5089C201.506 100.653 199.106 103.797 195.506 103.797ZM195.506 101.037C197.042 101.037 198.17 99.5009 198.17 94.5089C198.17 89.5409 197.042 88.1009 195.506 88.1009C193.97 88.1009 192.818 89.5409 192.818 94.5089C192.818 99.5009 193.97 101.037 195.506 101.037ZM209.765 103.797C206.141 103.797 203.741 100.653 203.741 94.5089C203.741 88.3889 206.141 85.3889 209.765 85.3889C213.365 85.3889 215.765 88.3889 215.765 94.5089C215.765 100.653 213.365 103.797 209.765 103.797ZM209.765 101.037C211.301 101.037 212.429 99.5009 212.429 94.5089C212.429 89.5409 211.301 88.1009 209.765 88.1009C208.229 88.1009 207.077 89.5409 207.077 94.5089C207.077 99.5009 208.229 101.037 209.765 101.037ZM224.024 103.797C220.4 103.797 218 100.653 218 94.5089C218 88.3889 220.4 85.3889 224.024 85.3889C227.624 85.3889 230.024 88.3889 230.024 94.5089C230.024 100.653 227.624 103.797 224.024 103.797ZM224.024 101.037C225.56 101.037 226.688 99.5009 226.688 94.5089C226.688 89.5409 225.56 88.1009 224.024 88.1009C222.488 88.1009 221.336 89.5409 221.336 94.5089C221.336 99.5009 222.488 101.037 224.024 101.037ZM236.513 96.8549H238.403V100.491H236.513V96.8549ZM243.767 88.5029H245.657V100.995H243.767V88.5029ZM234.155 103.101H246.035V104.631H234.155V103.101ZM234.155 99.7889H236.045V103.515H234.155V99.7889ZM232.193 97.4849L231.941 95.9549C234.965 95.9549 239.015 95.9189 242.489 95.4689L242.615 96.8369C239.087 97.4129 235.163 97.4849 232.193 97.4849ZM240.527 98.1509H244.217V99.4829H240.527V98.1509ZM237.269 89.1329C239.663 89.1329 241.337 90.2849 241.337 92.0309C241.337 93.7769 239.663 94.9109 237.269 94.9109C234.857 94.9109 233.201 93.7769 233.201 92.0309C233.201 90.2849 234.857 89.1329 237.269 89.1329ZM237.269 90.5189C235.919 90.5189 234.983 91.0769 234.983 92.0309C234.983 92.9669 235.919 93.5249 237.269 93.5249C238.601 93.5249 239.537 92.9669 239.537 92.0309C239.537 91.0769 238.601 90.5189 237.269 90.5189ZM248.081 106.701L253.085 89.0789H254.507L249.521 106.701H248.081ZM260.021 95.2529H261.893V98.1509H260.021V95.2529ZM267.545 88.5029H269.435V98.1149H267.545V88.5029ZM255.989 95.8649L255.773 94.5149C258.941 94.5149 262.901 94.4969 266.393 94.1369L266.501 95.3249C262.919 95.8289 259.067 95.8649 255.989 95.8649ZM258.203 98.6729H269.435V102.291H260.093V103.893H258.239V101.067H267.581V99.9869H258.203V98.6729ZM258.239 103.479H269.903V104.811H258.239V103.479ZM264.431 96.2429H268.139V97.4129H264.431V96.2429ZM261.047 88.7909C263.495 88.7909 265.115 89.7449 265.115 91.2569C265.115 92.7689 263.495 93.7229 261.047 93.7229C258.581 93.7229 256.961 92.7689 256.961 91.2569C256.961 89.7449 258.581 88.7909 261.047 88.7909ZM261.047 90.0509C259.625 90.0509 258.725 90.5009 258.725 91.2569C258.725 92.0129 259.625 92.4449 261.047 92.4449C262.451 92.4449 263.351 92.0129 263.351 91.2569C263.351 90.5009 262.451 90.0509 261.047 90.0509Z" fill="#F14C29"/>
<defs>
<filter id="filter0_d_72_4666" x="0" y="0" width="366" height="141" filterUnits="userSpaceOnUse" color-interpolation-filters="sRGB">
<feFlood flood-opacity="0" result="BackgroundImageFix"/>
<feColorMatrix in="SourceAlpha" type="matrix" values="0 0 0 0 0 0 0 0 0 0 0 0 0 0 0 0 0 0 127 0" result="hardAlpha"/>
<feOffset dy="2"/>
<feGaussianBlur stdDeviation="4"/>
<feComposite in2="hardAlpha" operator="out"/>
<feColorMatrix type="matrix" values="0 0 0 0 0 0 0 0 0 0 0 0 0 0 0 0 0 0 0.1 0"/>
<feBlend mode="normal" in2="BackgroundImageFix" result="effect1_dropShadow_72_4666"/>
<feBlend mode="normal" in="SourceGraphic" in2="effect1_dropShadow_72_4666" result="shape"/>
</filter>
<linearGradient id="paint0_linear_72_4666" x1="67.4269" y1="92" x2="67.4269" y2="45" gradientUnits="userSpaceOnUse">
<stop stop-color="#FC9600"/>
<stop offset="1" stop-color="#E93B0C"/>
</linearGradient>
</defs>
</svg>
